<svg width="72" height="73" viewBox="0 0 72 73" fill="none" xmlns="http://www.w3.org/2000/svg">
<path d="M25.8791 9.64236H22.1711L21.1045 5.97473L19.9871 9.64236L16.4315 9.76971L19.2505 11.8328L18.1839 15.2966L21.0029 13.0807L23.9997 15.2966L22.9331 11.9601L25.8791 9.64236Z" fill="#089BD6"/>
<path d="M40.7868 5.61802H37.0789L36.0123 1.95038L34.8947 5.61802L31.3393 5.74536L34.1583 7.80841L33.0917 11.2978L35.9107 9.05644L38.9075 11.2978L37.8407 7.93574L40.7868 5.61802Z" fill="#089BD6"/>
<path d="M55.7967 9.64236H52.0889L51.0221 5.97473L49.9047 9.64236L46.3491 9.76971L49.1682 11.8328L48.1015 15.2966L50.9206 13.0807L53.9173 15.2966L52.8507 11.9601L55.7967 9.64236Z" fill="#089BD6"/>
<path d="M66.6919 20.4668H62.9585L61.8919 16.7991L60.7745 20.4668L57.2189 20.5941L60.0379 22.6317L58.9967 26.121L61.8157 23.9051L64.7872 26.121L63.7205 22.7844L66.6919 20.4668Z" fill="#089BD6"/>
<path d="M70.7052 35.1882H66.9719L65.9052 31.5206L64.7877 35.1882L61.2321 35.3156L64.0513 37.3786L62.9846 40.8425L65.829 38.6265L68.8005 40.8425L67.7337 37.5059L70.7052 35.1882Z" fill="#089BD6"/>
<path d="M66.7167 50.1135H62.9833L61.9421 46.446L60.8247 50.1135L57.2437 50.241L60.0626 52.304L59.0214 55.7933L61.8404 53.552L64.8119 55.7933L63.7706 52.4313L66.7167 50.1135Z" fill="#089BD6"/>
<path d="M55.9488 61.2947H52.2155L51.1489 57.6271L50.0314 61.2947L46.4758 61.4221L49.2949 63.4597L48.2281 66.949L51.0727 64.7331L54.0442 66.949L52.9774 63.587L55.9488 61.2947Z" fill="#089BD6"/>
<path d="M40.7868 64.988H37.0789L36.0123 61.3203L34.8947 64.988L31.3393 65.1153L34.1583 67.1783L33.0917 70.6422L35.9107 68.4262L38.9075 70.6422L37.8407 67.3056L40.7868 64.988Z" fill="#089BD6"/>
<path d="M26.1331 61.2947H22.4252L21.3586 57.6271L20.2411 61.2947L16.6602 61.4221L19.5046 63.4597L18.438 66.949L21.257 64.7331L24.2539 66.949L23.1871 63.587L26.1331 61.2947Z" fill="#089BD6"/>
<path d="M15.0602 50.3175H11.3523L10.2856 46.6498L9.16818 50.3175L5.61261 50.4447L8.43165 52.5078L7.36499 55.9716L10.184 53.7559L13.1809 55.9716L12.1142 52.6352L15.0602 50.3175Z" fill="#089BD6"/>
<path d="M11.1234 35.4175H7.39007L6.3488 31.75L5.20594 35.4175L1.65039 35.5704L4.46944 37.608L3.42817 41.0973L6.24722 38.8814L9.21867 41.0973L8.17736 37.7353L11.1234 35.4175Z" fill="#089BD6"/>
<path d="M15.0602 20.5941H11.3523L10.2856 16.9265L9.16818 20.5941L5.61261 20.7214L8.43165 22.7845L7.36499 26.2483L10.184 24.0325L13.1809 26.2483L12.1142 22.9119L15.0602 20.5941Z" fill="#089BD6"/>
<path d="M31.8987 14.8382H40.7114V16.7994H34.2098V19.4481H40.0257V21.282H34.1844V24.7968H40.7114V26.6561H31.8987V14.8382Z" fill="#089BD6"/>
<path d="M17.7527 31.2405H26.5655V33.2018H20.0639V35.8761H25.8797V37.7099H20.0385V41.1992H26.5655V43.0584H17.7527V31.2405Z" fill="#089BD6"/>
<path d="M31.9235 47.363V59.1809H34.2345V54.0616H39.1108V52.2532H34.2091V49.2478H39.7456V47.363H31.9235Z" fill="#089BD6"/>
<path d="M46.7802 31.2405V43.0584H49.0914V37.9392H53.9676V36.1053H49.066V33.1253H54.6279V31.2405H46.7802Z" fill="#089BD6"/>
<path d="M40.6345 33.0487C40.0504 31.9026 39.0345 31.3677 38.3488 31.164C37.7901 31.0111 37.3584 31.0111 37.1298 31.0111C35.8346 31.0366 34.1837 31.0366 31.9235 31.0111V42.88H34.2091V38.2445L38.4759 38.2191C38.7044 38.1427 40.0504 37.6843 40.7107 36.207C40.7869 36.0796 41.4218 34.6024 40.6345 33.0487ZM36.6472 36.5889H34.2599V32.9214H36.6472C37.7392 32.8705 38.6282 33.7873 38.6028 34.8315C38.5521 35.7994 37.6884 36.6144 36.6472 36.5889Z" fill="#089BD6"/>
</svg>
