<svg width="16" height="16" viewBox="0 0 16 16" fill="none" xmlns="http://www.w3.org/2000/svg">
<g clip-path="url(#clip0_17_83)">
<path d="M8 0C5.87875 0 3.8425 0.843375 2.34375 2.34313C0.843465 3.84348 0.000429311 5.87823 0 8C0 10.1209 0.84375 12.1571 2.34375 13.6569C3.8425 15.1566 5.87875 16 8 16C10.1213 16 12.1575 15.1566 13.6562 13.6569C15.1562 12.1571 16 10.1209 16 8C16 5.87913 15.1562 3.84288 13.6562 2.34313C12.1575 0.843375 10.1213 0 8 0Z" fill="url(#paint0_linear_17_83)"/>
<path d="M3.62125 7.91553C5.95375 6.89953 7.50875 6.22969 8.28625 5.90603C10.5087 4.9819 10.97 4.8214 11.2712 4.81597C11.3375 4.8149 11.485 4.83128 11.5812 4.90909C11.6612 4.97472 11.6837 5.06347 11.695 5.12578C11.705 5.18803 11.7187 5.3299 11.7075 5.44065C11.5875 6.70565 11.0662 9.7754 10.8012 11.1923C10.69 11.7918 10.4687 11.9928 10.255 12.0124C9.79 12.0552 9.4375 11.7054 8.9875 11.4105C8.28375 10.9489 7.88625 10.6617 7.2025 10.2113C6.4125 9.69078 6.925 9.40465 7.375 8.93715C7.4925 8.81478 9.54 6.9529 9.57875 6.78403C9.58375 6.7629 9.58875 6.68415 9.54125 6.64265C9.495 6.60103 9.42625 6.61528 9.37625 6.62653C9.305 6.64253 8.18125 7.38603 6.00125 8.8569C5.6825 9.07615 5.39375 9.18303 5.13375 9.1774C4.84875 9.17128 4.29875 9.0159 3.89 8.88315C3.39 8.72028 2.99125 8.63415 3.02625 8.35753C3.04375 8.21353 3.2425 8.06615 3.62125 7.91553Z" fill="white"/>
</g>
<defs>
<linearGradient id="paint0_linear_17_83" x1="800" y1="0" x2="800" y2="1600" gradientUnits="userSpaceOnUse">
<stop stop-color="#2AABEE"/>
<stop offset="1" stop-color="#229ED9"/>
</linearGradient>
<clipPath id="clip0_17_83">
<rect width="16" height="16" fill="white"/>
</clipPath>
</defs>
</svg>
